<svg width="1440" height="900" viewBox="0 0 1440 900" fill="none" xmlns="http://www.w3.org/2000/svg">
<g id="clipPath-2" clip-path="url(#clip0_2:10)">
<rect width="1440" height="900" fill="white"/>
<circle id="clipPath" cx="726.5" cy="453.5" r="181.5" fill="#91FF05"/>
<path id="wave-2" d="M222 644.802C212.377 640.424 176.032 634.294 107.64 644.802C39.2484 655.31 2.71686 649.18 -7 644.802V1034H908V644.802C898.377 640.424 862.032 634.294 793.64 644.802C725.248 655.31 688.717 649.18 679 644.802C669.377 640.424 633.032 634.294 564.64 644.802C498.406 654.978 462.054 649.55 451 645.221V644.802C441.377 640.424 405.032 634.294 336.64 644.802C268.248 655.31 231.717 649.18 222 644.802Z" fill="#0587B0"/>
<path id="wave-1" d="M1231 651.802C1240.62 647.424 1276.97 641.294 1345.36 651.802C1413.75 662.31 1450.28 656.18 1460 651.802V1041H545V651.802C554.623 647.424 590.968 641.294 659.36 651.802C727.752 662.31 764.283 656.18 774 651.802C783.623 647.424 819.968 641.294 888.36 651.802C954.594 661.978 990.946 656.55 1002 652.221V651.802C1011.62 647.424 1047.97 641.294 1116.36 651.802C1184.75 662.31 1221.28 656.18 1231 651.802Z" fill="#28A9F1"/>
</g>
<defs>
<clipPath id="clip0_2:10">
<rect width="1440" height="900" fill="white"/>
</clipPath>
</defs>
</svg>
