<svg width="1440" height="900" viewBox="0 0 1440 900" fill="none" xmlns="http://www.w3.org/2000/svg">
<g id="robot">
<rect width="1440" height="900" fill="white"/>
<path id="shadow" d="M722.903 813C844.105 813 942.359 801.581 942.359 787.495C942.359 773.409 844.105 761.991 722.903 761.991C601.7 761.991 503.446 773.409 503.446 787.495C503.446 801.581 601.7 813 722.903 813Z" fill="#C7ECE8"/>
<g id="head">
<g id="glass">
<path id="Vector" d="M750.122 130.426H688.878C647.538 130.426 614.025 163.921 614.025 205.24V417.779C614.025 459.098 647.538 492.593 688.878 492.593H750.122C791.462 492.593 824.975 459.098 824.975 417.779V205.24C824.975 163.921 791.462 130.426 750.122 130.426Z" fill="#85D3C5"/>
</g>
<path id="Vector_2" d="M733.28 150.49C733.28 150.49 734.845 150.082 737.567 149.572C739.196 149.229 740.843 148.979 742.5 148.823C744.44 148.823 746.651 148.347 749.067 148.381C751.655 148.313 754.245 148.393 756.824 148.619C758.219 148.619 759.648 148.891 761.111 149.061L765.535 149.912C767.078 150.212 768.601 150.61 770.094 151.102C771.652 151.517 773.176 152.051 774.653 152.7C776.184 153.346 777.749 153.89 779.212 154.673L783.601 157.121C786.438 158.912 789.104 160.961 791.563 163.242L793.4 164.908L795 166.711C796.096 167.87 797.119 169.096 798.062 170.383C799.853 172.753 801.447 175.267 802.825 177.899C804.057 180.213 805.126 182.611 806.023 185.074C806.798 187.121 807.456 189.21 807.997 191.331C808.45 192.95 808.791 194.597 809.018 196.262C809.494 199.017 809.63 200.615 809.63 200.615C809.63 200.615 808.643 199.323 807.146 197.01C806.398 195.888 805.513 194.494 804.424 192.93C803.335 191.365 802.247 189.529 801.022 187.829C799.797 186.128 798.266 184.02 796.565 182.115C794.863 180.211 793.162 178.205 791.359 176.232C790.44 175.212 789.352 174.396 788.399 173.41C787.399 172.441 786.343 171.533 785.235 170.689C783.065 168.925 780.793 167.289 778.43 165.793L774.755 163.65C773.53 163.004 772.237 162.392 770.978 161.78C768.427 160.556 765.841 159.535 763.255 158.583L759.41 157.257L755.668 156.135C753.218 155.353 750.802 154.808 748.625 154.196C746.447 153.584 744.371 153.21 742.534 152.7L737.703 151.578C734.811 150.966 733.28 150.49 733.28 150.49Z" fill="white"/>
<g id="hair">
<path id="Vector_3" d="M731.409 123.557C731.404 125.115 731.093 126.658 730.492 128.096C729.891 129.534 729.012 130.84 727.907 131.939C726.801 133.038 725.489 133.908 724.047 134.501C722.604 135.093 721.059 135.395 719.5 135.391V135.391C716.342 135.391 713.313 134.137 711.079 131.905C708.846 129.673 707.592 126.645 707.592 123.489V98.8342C707.592 95.6775 708.846 92.6502 711.079 90.4181C713.313 88.186 716.342 86.932 719.5 86.932V86.932C722.658 86.932 725.687 88.186 727.921 90.4181C730.154 92.6502 731.409 95.6775 731.409 98.8342V123.557Z" fill="black"/>
<path id="Vector_4" d="M756.927 124.849C756.927 126.242 756.652 127.622 756.119 128.909C755.585 130.196 754.803 131.366 753.818 132.351C752.832 133.337 751.662 134.118 750.374 134.651C749.086 135.185 747.705 135.459 746.311 135.459H692.723C689.905 135.459 687.201 134.342 685.205 132.353C683.208 130.365 682.082 127.666 682.073 124.849V124.849C682.073 122.026 683.196 119.319 685.193 117.323C687.19 115.326 689.899 114.205 692.723 114.205H746.311C747.708 114.205 749.091 114.481 750.382 115.016C751.672 115.551 752.843 116.336 753.83 117.325C754.816 118.313 755.597 119.487 756.128 120.778C756.66 122.069 756.931 123.453 756.927 124.849V124.849Z" fill="#B74964"/>
</g>
<path id="skull" d="M766.283 232.377H672.717C665.2 232.377 659.107 238.467 659.107 245.979V371.803C659.107 379.315 665.2 385.405 672.717 385.405H766.283C773.8 385.405 779.893 379.315 779.893 371.803V245.979C779.893 238.467 773.8 232.377 766.283 232.377Z" fill="black"/>
<path id="eye-left" d="M692.281 286.379C697.918 286.379 702.488 281.811 702.488 276.177C702.488 270.543 697.918 265.975 692.281 265.975C686.643 265.975 682.073 270.543 682.073 276.177C682.073 281.811 686.643 286.379 692.281 286.379Z" fill="#D15741"/>
<path id="eye-right" d="M746.719 286.379C752.357 286.379 756.927 281.811 756.927 276.177C756.927 270.543 752.357 265.975 746.719 265.975C741.082 265.975 736.512 270.543 736.512 276.177C736.512 281.811 741.082 286.379 746.719 286.379Z" fill="#D15741"/>
<path id="mouth" d="M702.488 305.49H736.512" stroke="white" stroke-width="1.95" stroke-miterlimit="10"/>
</g>
<g id="arm-left">
<path id="Vector_5" d="M555.469 451.649C536.654 451.343 516.41 449.133 499.534 459.437C477.18 473.039 467.857 500.244 465.509 525.035C464.114 540.78 465.135 556.593 465.169 572.372C465.169 583.322 482.181 583.322 482.181 572.372C482.181 548.125 479.051 522.178 488.476 499.122C492.049 489.821 498.067 481.656 505.896 475.488C511.817 471.563 518.647 469.221 525.732 468.686C535.592 468.159 545.473 468.159 555.333 468.686C566.289 468.686 566.289 451.683 555.333 451.683L555.469 451.649Z" fill="black"/>
<path id="Vector_6" d="M497.05 576.962C496.867 579.384 495.735 581.636 493.9 583.228C492.065 584.82 489.675 585.623 487.251 585.464H461.188C458.767 585.623 456.382 584.818 454.552 583.225C452.723 581.633 451.598 579.381 451.423 576.962V576.962C451.598 574.544 452.723 572.292 454.552 570.699C456.382 569.107 458.767 568.302 461.188 568.461H487.251C489.675 568.302 492.065 569.105 493.9 570.697C495.735 572.289 496.867 574.541 497.05 576.962V576.962Z" fill="#B74964"/>
<path id="Vector_7" d="M452.104 612.669C452.104 597.672 462.005 585.464 474.219 585.464C486.434 585.464 496.335 597.672 496.335 612.669" stroke="black" stroke-width="3" stroke-miterlimit="10"/>
<path id="Vector_8" d="M547.371 484.839C547.371 487.094 546.475 489.257 544.88 490.851C543.285 492.445 541.121 493.341 538.865 493.341V493.341C536.609 493.341 534.446 492.445 532.851 490.851C531.256 489.257 530.359 487.094 530.359 484.839V435.598C530.359 433.344 531.256 431.181 532.851 429.587C534.446 427.992 536.609 427.097 538.865 427.097V427.097C541.121 427.097 543.285 427.992 544.88 429.587C546.475 431.181 547.371 433.344 547.371 435.598V484.839Z" fill="#85D3C5"/>
</g>
<g id="arm-right">
<path id="Vector_9" d="M883.531 468.652C892.241 468.652 901.019 467.904 909.764 468.346C916.887 468.482 923.88 470.288 930.178 473.617C948.551 484.261 955.458 508.542 956.751 528.707C957.704 543.228 956.751 557.817 956.751 572.372C956.751 583.322 973.763 583.322 973.763 572.372C973.763 544.418 976.451 515.751 964.713 489.498C959.848 478.352 952.169 468.66 942.427 461.375C934.444 455.953 925.199 452.674 915.582 451.853C904.937 451.071 894.253 451.003 883.599 451.649C872.643 451.649 872.609 468.856 883.599 468.652H883.531Z" fill="black"/>
<path id="Vector_10" d="M941.95 576.962C942.133 579.384 943.265 581.636 945.1 583.228C946.935 584.82 949.325 585.623 951.749 585.464H977.812C980.233 585.623 982.618 584.818 984.448 583.225C986.277 581.633 987.402 579.381 987.577 576.962C987.402 574.544 986.277 572.292 984.448 570.699C982.618 569.107 980.233 568.302 977.812 568.461H951.749C949.325 568.302 946.935 569.105 945.1 570.697C943.265 572.289 942.133 574.541 941.95 576.962V576.962Z" fill="#B74964"/>
<path id="Vector_11" d="M986.896 612.669C986.896 597.672 976.995 585.464 964.781 585.464C952.566 585.464 942.665 597.672 942.665 612.669" stroke="black" stroke-width="3" stroke-miterlimit="10"/>
<path id="Vector_12" d="M891.628 484.839C891.628 487.094 892.525 489.257 894.12 490.851C895.715 492.445 897.879 493.341 900.134 493.341C902.39 493.341 904.554 492.445 906.149 490.851C907.744 489.257 908.641 487.094 908.641 484.839V435.598C908.641 433.344 907.744 431.181 906.149 429.587C904.554 427.992 902.39 427.097 900.134 427.097C897.879 427.097 895.715 427.992 894.12 429.587C892.525 431.181 891.628 433.344 891.628 435.598V484.839Z" fill="#85D3C5"/>
</g>
<g id="body">
<path id="Vector_13" d="M849.643 351.467H589.358C563.05 351.467 541.724 372.782 541.724 399.076V574.208C541.724 600.501 563.05 621.817 589.358 621.817H849.643C875.95 621.817 897.277 600.501 897.277 574.208V399.076C897.277 372.782 875.95 351.467 849.643 351.467Z" fill="#E6AE55"/>
<path id="Vector_14" d="M594.903 507.046C604.299 507.046 611.915 499.433 611.915 490.042C611.915 480.652 604.299 473.039 594.903 473.039C585.508 473.039 577.891 480.652 577.891 490.042C577.891 499.433 585.508 507.046 594.903 507.046Z" fill="#B74964"/>
<path id="Vector_15" d="M594.903 554.654C604.299 554.654 611.915 547.042 611.915 537.651C611.915 528.261 604.299 520.648 594.903 520.648C585.508 520.648 577.891 528.261 577.891 537.651C577.891 547.042 585.508 554.654 594.903 554.654Z" fill="#D15741"/>
<path id="Vector_16" d="M787.549 509.12C787.549 511.942 784.146 514.221 779.893 514.221H659.141C654.922 514.221 651.452 511.942 651.452 509.12C651.452 506.297 654.854 504.019 659.141 504.019H779.893C784.112 504.019 787.549 506.297 787.549 509.12Z" fill="black"/>
<path id="Vector_17" d="M787.549 526.123C787.549 528.946 784.146 531.224 779.893 531.224H659.141C654.922 531.224 651.452 528.946 651.452 526.123C651.452 523.3 654.854 521.022 659.141 521.022H779.893C784.112 521.022 787.549 523.3 787.549 526.123Z" fill="black"/>
<path id="Vector_18" d="M787.549 543.126C787.549 545.949 784.146 548.227 779.893 548.227H659.141C654.922 548.227 651.452 545.949 651.452 543.126C651.452 540.304 654.854 538.025 659.141 538.025H779.893C784.112 538.025 787.549 540.304 787.549 543.126Z" fill="black"/>
<path id="Vector_19" d="M787.549 560.129C787.549 562.952 784.146 565.23 779.893 565.23H659.141C654.922 565.23 651.452 562.952 651.452 560.129C651.452 557.307 654.854 555.028 659.141 555.028H779.893C784.112 555.028 787.549 557.307 787.549 560.129Z" fill="black"/>
<path id="Vector_20" d="M860.734 393.193C871.69 393.193 871.724 376.189 860.734 376.189C849.745 376.189 849.779 393.193 860.734 393.193Z" fill="black"/>
<path id="Vector_21" d="M824.975 433.082C824.939 443.43 820.801 453.342 813.467 460.647C806.133 467.952 796.201 472.053 785.847 472.053H653.153C642.776 472.053 632.823 467.933 625.485 460.599C618.148 453.265 614.025 443.318 614.025 432.946C614.025 422.574 618.148 412.627 625.485 405.293C632.823 397.959 642.776 393.839 653.153 393.839H785.847C796.225 393.839 806.177 397.959 813.515 405.293C820.853 412.627 824.975 422.574 824.975 432.946V433.082Z" fill="white"/>
<path id="Vector_22" d="M672.717 451.513C682.901 451.513 691.158 443.261 691.158 433.082C691.158 422.902 682.901 414.65 672.717 414.65C662.532 414.65 654.275 422.902 654.275 433.082C654.275 443.261 662.532 451.513 672.717 451.513Z" fill="black"/>
<path id="Vector_23" d="M764.582 451.513C774.767 451.513 783.023 443.261 783.023 433.082C783.023 422.902 774.767 414.65 764.582 414.65C754.397 414.65 746.141 422.902 746.141 433.082C746.141 443.261 754.397 451.513 764.582 451.513Z" fill="black"/>
<path id="Vector_24" opacity="0.1" d="M718.649 351.467H849.643C862.276 351.467 874.392 356.483 883.325 365.411C892.258 374.339 897.277 386.449 897.277 399.076V574.072C897.277 586.699 892.258 598.808 883.325 607.736C874.392 616.665 862.276 621.681 849.643 621.681H718.649" fill="black"/>
<path id="Vector_25" d="M836.237 342.489C836.237 344.217 835.897 345.929 835.235 347.525C834.573 349.122 833.603 350.573 832.381 351.795C831.158 353.017 829.706 353.986 828.109 354.648C826.511 355.309 824.799 355.65 823.07 355.65H615.964C612.469 355.65 609.116 354.264 606.642 351.797C604.167 349.33 602.772 345.983 602.763 342.489C602.763 338.99 604.154 335.634 606.63 333.159C609.105 330.685 612.463 329.295 615.964 329.295H823.07C826.565 329.304 829.914 330.698 832.383 333.171C834.851 335.645 836.237 338.996 836.237 342.489V342.489Z" fill="#D15741"/>
</g>
<g id="left-left">
<path id="Vector_26" d="M646.348 756.992C646.348 767.806 638.761 776.545 629.336 776.545C619.945 776.545 612.324 767.806 612.324 756.992V612.465C612.324 601.685 619.945 592.911 629.336 592.911C638.761 592.911 646.348 601.685 646.348 612.465V756.992Z" fill="#85D3C5"/>
<path id="Vector_27" d="M629.336 718.735C643.429 718.735 654.854 707.316 654.854 693.23C654.854 679.144 643.429 667.725 629.336 667.725C615.243 667.725 603.818 679.144 603.818 693.23C603.818 707.316 615.243 718.735 629.336 718.735Z" fill="#B74964"/>
<path id="Vector_28" d="M673.567 771.308C673.567 775.818 671.775 780.143 668.585 783.331C665.394 786.52 661.067 788.311 656.555 788.311H602.117C597.605 788.311 593.278 786.52 590.087 783.331C586.897 780.143 585.104 775.818 585.104 771.308V771.308C585.104 766.799 586.897 762.474 590.087 759.285C593.278 756.097 597.605 754.305 602.117 754.305H656.555C661.067 754.305 665.394 756.097 668.585 759.285C671.775 762.474 673.567 766.799 673.567 771.308Z" fill="black"/>
<path id="Vector_29" d="M629.336 703.432C634.973 703.432 639.543 698.864 639.543 693.23C639.543 687.596 634.973 683.028 629.336 683.028C623.699 683.028 619.129 687.596 619.129 693.23C619.129 698.864 623.699 703.432 629.336 703.432Z" fill="#D15741"/>
<path id="Vector_30" d="M659.107 625.591C659.107 627.729 658.258 629.779 656.745 631.29C655.233 632.802 653.182 633.651 651.043 633.651H607.662C605.521 633.651 603.466 632.803 601.948 631.292C600.431 629.782 599.574 627.732 599.565 625.591V625.591C599.574 623.448 600.43 621.394 601.946 619.878C603.463 618.362 605.518 617.507 607.662 617.498H651.043C653.185 617.507 655.236 618.364 656.747 619.88C658.259 621.397 659.107 623.451 659.107 625.591V625.591Z" fill="#D15741"/>
</g>
<g id="leg-right">
<path id="Vector_31" d="M826.677 756.992C826.677 767.806 819.089 776.545 809.664 776.545C800.274 776.545 792.652 767.806 792.652 756.992V612.465C792.652 601.685 800.274 592.911 809.664 592.911C819.089 592.911 826.677 601.685 826.677 612.465V756.992Z" fill="#85D3C5"/>
<path id="Vector_32" d="M809.664 718.735C823.758 718.735 835.183 707.316 835.183 693.23C835.183 679.144 823.758 667.725 809.664 667.725C795.571 667.725 784.146 679.144 784.146 693.23C784.146 707.316 795.571 718.735 809.664 718.735Z" fill="#B74964"/>
<path id="Vector_33" d="M809.664 703.432C815.302 703.432 819.872 698.864 819.872 693.23C819.872 687.596 815.302 683.028 809.664 683.028C804.027 683.028 799.457 687.596 799.457 693.23C799.457 698.864 804.027 703.432 809.664 703.432Z" fill="#D15741"/>
<path id="Vector_34" d="M853.896 771.308C853.896 775.818 852.103 780.143 848.913 783.331C845.723 786.52 841.396 788.311 836.884 788.311H782.445C777.933 788.311 773.606 786.52 770.416 783.331C767.225 780.143 765.433 775.818 765.433 771.308C765.433 766.799 767.225 762.474 770.416 759.285C773.606 756.097 777.933 754.305 782.445 754.305H836.884C841.396 754.305 845.723 756.097 848.913 759.285C852.103 762.474 853.896 766.799 853.896 771.308Z" fill="black"/>
<path id="Vector_35" d="M839.435 625.591C839.435 627.729 838.586 629.779 837.074 631.29C835.561 632.802 833.51 633.651 831.372 633.651H787.991C785.849 633.651 783.795 632.803 782.277 631.292C780.759 629.782 779.902 627.732 779.893 625.591V625.591C779.902 623.448 780.758 621.394 782.275 619.878C783.791 618.362 785.846 617.507 787.991 617.498H831.372C833.514 617.507 835.564 618.364 837.076 619.88C838.587 621.397 839.436 623.451 839.435 625.591V625.591Z" fill="#D15741"/>
</g>
</g>
</svg>
