<svg width="1440" height="900" viewBox="0 0 1440 900" fill="none" xmlns="http://www.w3.org/2000/svg">
<rect width="1440" height="900" fill="white"/>
<path d="M691.666 747C762.859 747 820.573 737.764 820.573 726.37C820.573 714.977 762.859 705.74 691.666 705.74C620.472 705.74 562.758 714.977 562.758 726.37C562.758 737.764 620.472 747 691.666 747Z" fill="#C7ECE8"/>
<path d="M710.843 413.128C710.843 417.858 708.966 422.394 705.623 425.741C702.28 429.088 697.745 430.972 693.014 430.979V430.979C688.283 430.972 683.748 429.088 680.405 425.741C677.062 422.394 675.184 417.858 675.184 413.128V364.111C675.191 359.389 677.073 354.862 680.416 351.526C683.759 348.189 688.29 346.315 693.014 346.315V346.315C697.738 346.315 702.269 348.189 705.612 351.526C708.954 354.862 710.836 359.389 710.843 364.111V413.128Z" fill="black"/>
<path d="M660.656 592.414H637.269V711.627H660.656V592.414Z" fill="#B74964"/>
<path d="M651.741 567.989H646.183C633.875 567.989 623.896 577.964 623.896 590.269V594.725C623.896 607.03 633.875 617.005 646.183 617.005H651.741C664.05 617.005 674.028 607.03 674.028 594.725V590.269C674.028 577.964 664.05 567.989 651.741 567.989Z" fill="black"/>
<path d="M680.192 716.716C680.185 719.522 679.066 722.211 677.081 724.196C675.096 726.18 672.406 727.298 669.599 727.305H628.326C625.521 727.298 622.834 726.179 620.853 724.194C618.873 722.209 617.76 719.519 617.76 716.716C617.757 715.326 618.027 713.95 618.557 712.665C619.086 711.38 619.864 710.213 620.845 709.229C621.827 708.245 622.993 707.465 624.277 706.932C625.56 706.4 626.936 706.126 628.326 706.126H669.599C672.408 706.126 675.102 707.241 677.089 709.227C679.076 711.213 680.192 713.907 680.192 716.716Z" fill="#E6AE55"/>
<path d="M664.123 655.514C664.123 659.31 657.272 662.39 648.825 662.39C640.378 662.39 633.527 659.365 633.527 655.514C633.527 651.663 640.378 648.637 648.825 648.637C657.272 648.637 664.123 651.773 664.123 655.514Z" fill="black"/>
<path d="M748.704 592.414H725.316V711.627H748.704V592.414Z" fill="#B74964"/>
<path d="M739.789 567.989H734.231C721.922 567.989 711.944 577.964 711.944 590.269V594.725C711.944 607.03 721.922 617.005 734.231 617.005H739.789C752.098 617.005 762.076 607.03 762.076 594.725V590.269C762.076 577.964 752.098 567.989 739.789 567.989Z" fill="black"/>
<path d="M768.24 716.716C768.232 719.522 767.114 722.211 765.129 724.196C763.144 726.18 760.454 727.298 757.646 727.305H716.374C713.569 727.298 710.882 726.179 708.901 724.194C706.92 722.209 705.808 719.519 705.808 716.716C705.805 715.326 706.075 713.95 706.605 712.665C707.134 711.38 707.912 710.213 708.893 709.229C709.875 708.245 711.041 707.465 712.324 706.932C713.608 706.4 714.984 706.126 716.374 706.126H757.646C760.456 706.126 763.15 707.241 765.137 709.227C767.123 711.213 768.24 713.907 768.24 716.716V716.716Z" fill="#E6AE55"/>
<path d="M752.171 655.514C752.171 659.31 745.32 662.39 736.873 662.39C728.425 662.39 721.574 659.31 721.574 655.514C721.574 651.718 728.425 648.637 736.873 648.637C745.32 648.637 752.171 651.773 752.171 655.514Z" fill="black"/>
<path d="M524.127 578.909C524.127 573.437 526.301 568.19 530.171 564.321C534.041 560.452 539.29 558.279 544.763 558.279C550.236 558.279 555.485 560.452 559.355 564.321C563.225 568.19 565.4 573.437 565.4 578.909" stroke="black" stroke-width="3" stroke-miterlimit="10"/>
<path d="M582.569 421.957C577.422 421.59 572.253 422.276 567.381 423.974C562.508 425.672 558.032 428.346 554.229 431.832C546.91 438.516 542.452 448.061 539.508 457.33C533.207 477.163 532.739 498.92 532.877 519.577C532.877 528.764 533.317 537.952 533.317 547.084C533.317 550.002 534.477 552.8 536.541 554.864C538.605 556.927 541.404 558.086 544.323 558.086C547.242 558.086 550.042 556.927 552.106 554.864C554.17 552.8 555.329 550.002 555.329 547.084C555.329 530.085 554.421 513.141 555.329 496.142C555.632 491.163 556.182 486.267 556.677 481.316C556.842 479.693 556.237 484.204 556.677 481.756C556.677 481.289 556.815 480.821 556.897 480.353C557.063 479.198 557.255 478.043 557.475 476.887C557.916 474.412 558.411 471.936 558.989 469.488C559.566 467.04 560.089 465.225 560.777 463.134C561.08 462.117 561.437 461.099 561.795 460.109L562.235 458.926C562.896 457.138 562.235 458.156 562.043 459.283C562.665 457.367 563.594 455.565 564.794 453.947C565.262 453.122 565.73 452.324 566.253 451.527L567.05 450.371C568.426 448.308 565.482 452.104 566.83 450.646C568.179 449.189 569.582 447.896 570.93 446.493C572.278 445.09 568.619 447.951 570.352 446.933C570.793 446.685 571.205 446.355 571.645 446.08C572.086 445.805 574.094 445.145 574.397 444.623C574.397 444.623 571.645 445.585 573.214 445.118C573.737 444.98 574.232 444.76 574.727 444.595C575.8 444.292 576.873 444.1 577.919 443.852C579.927 443.33 575.525 443.99 576.956 443.852C577.644 443.852 578.332 443.852 579.019 443.715C580.258 443.715 581.468 443.715 582.706 443.715C585.625 443.715 588.425 442.556 590.489 440.492C592.553 438.429 593.712 435.63 593.712 432.712C593.649 429.814 592.47 427.052 590.419 425.002C588.369 422.952 585.606 421.773 582.706 421.71L582.569 421.957Z" fill="black"/>
<path d="M563.226 550.715C563.226 551.754 563.021 552.782 562.622 553.742C562.224 554.702 561.639 555.573 560.903 556.306C560.167 557.04 559.293 557.621 558.332 558.016C557.371 558.411 556.341 558.613 555.302 558.609H534.225C533.186 558.613 532.156 558.411 531.195 558.016C530.234 557.621 529.36 557.04 528.624 556.306C527.887 555.573 527.303 554.702 526.905 553.742C526.506 552.782 526.301 551.754 526.301 550.715V550.715C526.294 549.67 526.493 548.634 526.888 547.666C527.283 546.699 527.866 545.819 528.602 545.077C529.339 544.336 530.215 543.748 531.18 543.346C532.145 542.944 533.18 542.738 534.225 542.738H555.302C556.342 542.738 557.373 542.943 558.334 543.341C559.296 543.739 560.169 544.322 560.905 545.058C561.641 545.794 562.224 546.667 562.623 547.628C563.021 548.589 563.226 549.619 563.226 550.66V550.715Z" fill="#D15741"/>
<path d="M627.996 433.758C627.996 439.377 626.329 444.871 623.206 449.544C620.083 454.216 615.644 457.858 610.45 460.009C605.256 462.159 599.542 462.722 594.028 461.626C588.515 460.529 583.45 457.823 579.475 453.849C575.5 449.876 572.793 444.813 571.696 439.301C570.6 433.789 571.163 428.076 573.314 422.884C575.465 417.692 579.108 413.254 583.782 410.132C588.456 407.01 593.952 405.343 599.573 405.343C607.109 405.351 614.334 408.347 619.663 413.674C624.992 419.001 627.989 426.224 627.996 433.758Z" fill="#B74964"/>
<path d="M861.873 578.909C861.873 573.437 859.699 568.19 855.829 564.321C851.959 560.452 846.71 558.279 841.237 558.279C835.764 558.279 830.515 560.452 826.645 564.321C822.775 568.19 820.6 573.437 820.6 578.909" stroke="black" stroke-width="3" stroke-miterlimit="10"/>
<path d="M803.569 443.962C804.202 443.962 809.457 444.265 809.594 443.962C809.319 444.43 806.623 443.412 808.631 443.962L809.98 444.265C811.025 444.512 812.016 444.898 813.034 445.2C814.052 445.503 812.566 445.75 811.878 444.705C812.043 444.953 813.006 445.255 813.281 445.393C813.969 445.75 814.602 446.19 815.29 446.603C817.876 448.143 813.997 445.255 815.538 446.741C816.253 447.401 816.996 448.033 817.656 448.721C818.317 449.409 818.839 450.069 819.445 450.729C820.793 452.187 818.152 448.831 818.894 450.014C819.142 450.399 819.445 450.756 819.692 451.142C820.87 452.902 821.927 454.74 822.857 456.643C823.242 457.468 823.6 458.293 823.985 459.091C824.618 460.439 822.994 456.34 823.71 458.458L824.15 459.613C824.975 461.842 825.691 464.097 826.324 466.353C827.546 470.879 828.511 475.47 829.213 480.106L829.46 481.839C829.763 483.792 829.46 481.261 829.46 481.041C829.498 482.244 829.646 483.441 829.9 484.617C830.203 487.367 830.423 489.926 830.616 492.594C831.304 502.248 831.441 511.848 831.359 521.613C831.359 530.14 830.918 538.639 830.891 547.166C830.891 550.084 832.051 552.883 834.115 554.946C836.179 557.01 838.978 558.169 841.897 558.169C844.816 558.169 847.615 557.01 849.679 554.946C851.743 552.883 852.903 550.084 852.903 547.166C852.903 528.957 853.948 510.775 852.628 492.594C851.169 472.514 848.143 449.491 834.055 433.923C830.227 429.793 825.52 426.576 820.281 424.51C815.042 422.444 809.406 421.581 803.789 421.985C800.883 422.027 798.108 423.2 796.054 425.255C793.999 427.309 792.825 430.083 792.783 432.987C793.03 438.489 797.625 444.402 803.789 443.99L803.569 443.962Z" fill="black"/>
<path d="M822.829 550.715C822.829 551.754 823.034 552.782 823.433 553.742C823.831 554.702 824.416 555.573 825.152 556.306C825.888 557.04 826.762 557.621 827.723 558.016C828.684 558.411 829.714 558.613 830.753 558.609H851.83C852.868 558.613 853.896 558.411 854.856 558.015C855.816 557.62 856.688 557.039 857.422 556.305C858.156 555.571 858.737 554.699 859.133 553.74C859.528 552.78 859.73 551.752 859.727 550.715V550.715C859.73 549.676 859.529 548.646 859.133 547.685C858.738 546.724 858.157 545.851 857.423 545.115C856.69 544.379 855.818 543.795 854.858 543.396C853.898 542.998 852.869 542.793 851.83 542.793H830.753C828.652 542.793 826.636 543.627 825.15 545.113C823.664 546.599 822.829 548.614 822.829 550.715V550.715Z" fill="#D15741"/>
<path d="M758.004 433.758C758.004 439.377 759.671 444.871 762.794 449.544C765.917 454.216 770.356 457.858 775.55 460.009C780.744 462.159 786.458 462.722 791.972 461.626C797.485 460.529 802.55 457.823 806.525 453.849C810.5 449.876 813.207 444.813 814.304 439.301C815.4 433.789 814.837 428.076 812.686 422.884C810.535 417.692 806.892 413.254 802.218 410.132C797.544 407.01 792.048 405.343 786.427 405.343C778.889 405.343 771.659 408.337 766.329 413.666C760.999 418.994 758.004 426.222 758.004 433.758V433.758Z" fill="#B74964"/>
<path d="M607.03 302.112C607.033 302.909 606.879 303.699 606.577 304.436C606.274 305.174 605.829 305.844 605.266 306.409C604.704 306.974 604.035 307.422 603.299 307.728C602.563 308.034 601.774 308.191 600.976 308.191H592.419C591.622 308.191 590.833 308.034 590.096 307.728C589.36 307.422 588.692 306.974 588.129 306.409C587.567 305.844 587.121 305.174 586.819 304.436C586.516 303.699 586.362 302.909 586.366 302.112V302.112C586.362 301.315 586.516 300.525 586.819 299.788C587.121 299.05 587.567 298.38 588.129 297.815C588.692 297.25 589.36 296.802 590.096 296.496C590.833 296.191 591.622 296.033 592.419 296.033H600.976C601.774 296.033 602.563 296.191 603.299 296.496C604.035 296.802 604.704 297.25 605.266 297.815C605.829 298.38 606.274 299.05 606.577 299.788C606.879 300.525 607.033 301.315 607.03 302.112Z" fill="black"/>
<path d="M615.312 333.689C615.315 334.869 615.086 336.038 614.637 337.129C614.188 338.22 613.527 339.212 612.694 340.048C611.861 340.883 610.871 341.546 609.781 341.999C608.691 342.451 607.522 342.684 606.342 342.684V342.684C605.159 342.688 603.988 342.457 602.894 342.007C601.801 341.556 600.808 340.893 599.972 340.058C599.135 339.222 598.473 338.229 598.022 337.136C597.571 336.043 597.341 334.872 597.344 333.689V270.645C597.344 268.259 598.292 265.971 599.98 264.285C601.667 262.598 603.956 261.65 606.342 261.65V261.65C608.723 261.657 611.005 262.608 612.686 264.294C614.368 265.98 615.312 268.264 615.312 270.645V333.689Z" fill="#B74964"/>
<path d="M799.634 302.112C799.638 302.909 799.484 303.699 799.181 304.436C798.879 305.174 798.433 305.844 797.871 306.409C797.308 306.974 796.64 307.422 795.904 307.728C795.167 308.034 794.378 308.191 793.581 308.191H785.024C784.226 308.191 783.437 308.034 782.701 307.728C781.965 307.422 781.296 306.974 780.734 306.409C780.171 305.844 779.726 305.174 779.423 304.436C779.121 303.699 778.967 302.909 778.97 302.112V302.112C778.967 301.315 779.121 300.525 779.423 299.788C779.726 299.05 780.171 298.38 780.734 297.815C781.296 297.25 781.965 296.802 782.701 296.496C783.437 296.191 784.226 296.033 785.024 296.033H793.581C794.378 296.033 795.167 296.191 795.904 296.496C796.64 296.802 797.308 297.25 797.871 297.815C798.433 298.38 798.879 299.05 799.181 299.788C799.484 300.525 799.638 301.315 799.634 302.112Z" fill="black"/>
<path d="M788.656 333.689C788.659 334.869 788.43 336.038 787.981 337.129C787.532 338.22 786.871 339.212 786.038 340.048C785.205 340.883 784.215 341.546 783.125 341.999C782.035 342.451 780.866 342.684 779.686 342.684C778.503 342.688 777.332 342.457 776.238 342.007C775.145 341.556 774.152 340.893 773.316 340.058C772.479 339.222 771.817 338.229 771.366 337.136C770.915 336.043 770.685 334.872 770.688 333.689V270.645C770.688 268.259 771.636 265.971 773.324 264.285C775.011 262.598 777.299 261.65 779.686 261.65V261.65C782.067 261.657 784.349 262.608 786.03 264.294C787.711 265.98 788.656 268.264 788.656 270.645V333.689Z" fill="#B74964"/>
<path d="M697.471 230.43C697.471 231.615 697.002 232.751 696.167 233.591C695.332 234.431 694.198 234.907 693.014 234.914V234.914C692.426 234.914 691.844 234.798 691.302 234.572C690.759 234.346 690.266 234.016 689.852 233.599C689.438 233.182 689.11 232.688 688.888 232.144C688.665 231.6 688.553 231.018 688.556 230.43V169.174C688.553 168.588 688.665 168.006 688.888 167.464C689.111 166.922 689.439 166.429 689.854 166.015C690.268 165.6 690.761 165.272 691.304 165.049C691.846 164.827 692.427 164.714 693.014 164.718V164.718C693.599 164.718 694.179 164.833 694.72 165.057C695.26 165.281 695.752 165.609 696.166 166.023C696.58 166.437 696.908 166.928 697.132 167.468C697.356 168.009 697.471 168.589 697.471 169.174V230.43Z" fill="black"/>
<path d="M693.014 175.005C699.092 175.005 704.02 170.079 704.02 164.003C704.02 157.926 699.092 153 693.014 153C686.935 153 682.008 157.926 682.008 164.003C682.008 170.079 686.935 175.005 693.014 175.005Z" fill="#85D3C5"/>
<path d="M725.316 241.598C725.316 247.991 723.419 254.241 719.866 259.557C716.312 264.872 711.261 269.015 705.352 271.46C699.443 273.906 692.941 274.544 686.669 273.295C680.397 272.046 674.636 268.965 670.116 264.442C665.595 259.919 662.518 254.158 661.274 247.886C660.03 241.615 660.674 235.116 663.125 229.211C665.576 223.305 669.724 218.26 675.045 214.712C680.365 211.163 686.618 209.273 693.014 209.278C697.258 209.278 701.461 210.114 705.382 211.739C709.303 213.363 712.865 215.744 715.865 218.746C718.865 221.748 721.244 225.311 722.865 229.232C724.487 233.153 725.32 237.355 725.316 241.598V241.598Z" fill="#D15741"/>
<path d="M747.026 236.949H638.947C621.715 236.949 607.745 250.915 607.745 268.142V336.082C607.745 353.309 621.715 367.275 638.947 367.275H747.026C764.258 367.275 778.227 353.309 778.227 336.082V268.142C778.227 250.915 764.258 236.949 747.026 236.949Z" fill="#E6AE55"/>
<path opacity="0.1" d="M691.225 236.949H747.053C751.151 236.949 755.208 237.756 758.993 239.324C762.779 240.891 766.219 243.189 769.116 246.085C772.013 248.982 774.312 252.42 775.88 256.205C777.448 259.989 778.255 264.045 778.255 268.142V336.11C778.248 344.378 774.957 352.305 769.106 358.148C763.256 363.992 755.324 367.275 747.053 367.275H691.225" fill="black"/>
<path d="M742.045 332.892C742.045 335.7 740.929 338.394 738.943 340.38C736.956 342.366 734.262 343.482 731.452 343.482H654.548C653.158 343.482 651.782 343.208 650.498 342.675C649.215 342.142 648.049 341.362 647.067 340.378C646.086 339.394 645.308 338.227 644.779 336.942C644.249 335.658 643.979 334.281 643.982 332.892V332.892C643.982 331.505 644.255 330.131 644.786 328.85C645.317 327.568 646.096 326.404 647.077 325.423C648.058 324.442 649.223 323.664 650.505 323.133C651.786 322.602 653.16 322.329 654.548 322.329H731.59C734.394 322.329 737.085 323.441 739.071 325.421C741.056 327.401 742.176 330.088 742.183 332.892H742.045Z" fill="black"/>
<path d="M675.074 291.715C675.074 295.24 674.028 298.686 672.069 301.617C670.11 304.548 667.325 306.833 664.067 308.182C660.81 309.531 657.225 309.884 653.766 309.196C650.307 308.508 647.13 306.811 644.637 304.318C642.143 301.825 640.445 298.649 639.757 295.192C639.069 291.734 639.422 288.151 640.772 284.894C642.121 281.637 644.407 278.853 647.339 276.894C650.271 274.936 653.718 273.89 657.244 273.89C661.973 273.89 666.508 275.768 669.852 279.111C673.196 282.454 675.074 286.987 675.074 291.715V291.715Z" fill="white"/>
<path d="M665.086 291.715C665.092 293.273 664.634 294.798 663.771 296.095C662.909 297.393 661.68 298.406 660.241 299.005C658.802 299.604 657.217 299.762 655.688 299.459C654.159 299.156 652.755 298.407 651.653 297.305C650.55 296.203 649.8 294.799 649.498 293.27C649.195 291.742 649.353 290.157 649.952 288.719C650.551 287.28 651.564 286.052 652.862 285.19C654.16 284.327 655.686 283.87 657.244 283.875C659.322 283.883 661.312 284.711 662.781 286.179C664.25 287.648 665.079 289.638 665.086 291.715V291.715Z" fill="black"/>
<path d="M746.613 291.715C746.613 295.24 745.567 298.686 743.608 301.617C741.649 304.548 738.864 306.833 735.606 308.182C732.348 309.531 728.763 309.884 725.305 309.196C721.846 308.508 718.669 306.811 716.176 304.318C713.682 301.825 711.984 298.649 711.296 295.192C710.608 291.734 710.961 288.151 712.311 284.894C713.66 281.637 715.945 278.853 718.878 276.894C721.81 274.936 725.257 273.89 728.783 273.89C733.512 273.89 738.047 275.768 741.391 279.111C744.734 282.454 746.613 286.987 746.613 291.715V291.715Z" fill="white"/>
<path d="M736.625 291.715C736.63 293.273 736.173 294.798 735.31 296.095C734.448 297.393 733.219 298.406 731.78 299.005C730.341 299.604 728.756 299.762 727.227 299.459C725.698 299.156 724.293 298.407 723.191 297.305C722.089 296.203 721.339 294.799 721.036 293.27C720.734 291.742 720.892 290.157 721.491 288.719C722.09 287.28 723.103 286.052 724.401 285.19C725.699 284.327 727.224 283.87 728.783 283.875C730.861 283.883 732.851 284.711 734.32 286.179C735.789 287.648 736.618 289.638 736.625 291.715V291.715Z" fill="black"/>
<path d="M744.797 261.018C744.79 262.423 744.228 263.769 743.233 264.763C742.239 265.757 740.893 266.319 739.486 266.326H647.119C645.715 266.319 644.372 265.756 643.382 264.762C642.392 263.767 641.836 262.421 641.836 261.018V261.018C641.836 259.617 642.393 258.274 643.383 257.283C644.374 256.293 645.718 255.736 647.119 255.736H739.486C740.89 255.736 742.237 256.292 743.232 257.281C744.227 258.271 744.79 259.614 744.797 261.018V261.018Z" fill="#D15741"/>
<path d="M762.434 390.848H620.925C608.616 390.848 598.638 400.823 598.638 413.128V578.001C598.638 590.306 608.616 600.281 620.925 600.281H762.434C774.743 600.281 784.721 590.306 784.721 578.001V413.128C784.721 400.823 774.743 390.848 762.434 390.848Z" fill="#85D3C5"/>
<path d="M741.192 422.26H642.139C633.523 422.26 626.538 429.242 626.538 437.856V553.273C626.538 561.886 633.523 568.869 642.139 568.869H741.192C749.809 568.869 756.793 561.886 756.793 553.273V437.856C756.793 429.242 749.809 422.26 741.192 422.26Z" fill="#D15741"/>
<path d="M734.781 468.14C734.781 484.232 716.154 497.27 693.179 497.27C670.204 497.27 651.576 484.232 651.576 468.14C651.576 452.049 670.204 439.011 693.179 439.011C716.154 439.011 734.781 451.967 734.781 468.14Z" fill="#B74964"/>
<path d="M714.008 468.14C714.008 476.172 704.708 482.691 693.206 482.691C681.705 482.691 672.405 476.172 672.405 468.14C672.405 460.109 681.705 453.59 693.206 453.59C704.708 453.59 714.008 460.219 714.008 468.14Z" fill="black"/>
<path d="M739.789 509.152C739.852 509.745 739.685 510.338 739.321 510.81C738.957 511.281 738.425 511.594 737.836 511.683H648.164C647.091 511.683 646.238 510.555 646.238 509.152C646.175 508.567 646.34 507.981 646.699 507.514C647.058 507.048 647.583 506.738 648.164 506.649H737.836C738.422 506.732 738.954 507.039 739.319 507.506C739.683 507.973 739.852 508.563 739.789 509.152V509.152Z" fill="#E6AE55"/>
<path d="M739.789 522.906C739.852 523.498 739.685 524.092 739.321 524.563C738.957 525.035 738.425 525.347 737.836 525.436H648.164C647.091 525.436 646.238 524.308 646.238 522.906C646.175 522.321 646.34 521.734 646.699 521.267C647.058 520.801 647.583 520.491 648.164 520.403H737.836C738.422 520.485 738.954 520.792 739.319 521.259C739.683 521.726 739.852 522.317 739.789 522.906V522.906Z" fill="#E6AE55"/>
<path d="M739.789 536.659C739.852 537.251 739.685 537.845 739.321 538.316C738.957 538.788 738.425 539.101 737.836 539.189H648.164C647.091 539.189 646.238 538.062 646.238 536.659C646.175 536.074 646.34 535.487 646.699 535.021C647.058 534.554 647.583 534.244 648.164 534.156H737.836C738.422 534.238 738.954 534.545 739.319 535.012C739.683 535.479 739.852 536.07 739.789 536.659V536.659Z" fill="#E6AE55"/>
<path d="M739.789 550.412C739.852 551.004 739.685 551.598 739.321 552.07C738.957 552.541 738.425 552.854 737.836 552.943H648.164C647.091 552.943 646.238 551.815 646.238 550.412C646.175 549.827 646.34 549.24 646.699 548.774C647.058 548.307 647.583 547.998 648.164 547.909H737.836C738.422 547.991 738.954 548.298 739.319 548.765C739.683 549.233 739.852 549.823 739.789 550.412V550.412Z" fill="#E6AE55"/>
<path d="M619.219 418.574C628.079 418.574 628.079 404.821 619.219 404.821C610.359 404.821 610.359 418.574 619.219 418.574Z" fill="white"/>
<path d="M761.939 584.327C770.798 584.327 770.798 570.574 761.939 570.574C753.079 570.574 753.079 584.327 761.939 584.327Z" fill="black"/>
</svg>
